<svg width="800" height="800" viewBox="0 0 800 800" fill="none" xmlns="http://www.w3.org/2000/svg">
<rect width="800" height="800" fill="#030303"/>
<path d="M475 650C475 669.891 467.098 688.968 453.033 703.033C438.968 717.098 419.891 725 400 725C380.109 725 361.032 717.098 346.967 703.033C332.902 688.968 325 669.891 325 650C325 630.109 332.902 611.032 346.967 596.967C361.032 582.902 380.109 575 400 575C419.891 575 438.968 582.902 453.033 596.967C467.098 611.032 475 630.109 475 650ZM475 400C475 419.891 467.098 438.968 453.033 453.033C438.968 467.098 419.891 475 400 475C380.109 475 361.032 467.098 346.967 453.033C332.902 438.968 325 419.891 325 400C325 380.109 332.902 361.032 346.967 346.967C361.032 332.902 380.109 325 400 325C419.891 325 438.968 332.902 453.033 346.967C467.098 361.032 475 380.109 475 400ZM475 150C475 169.891 467.098 188.968 453.033 203.033C438.968 217.098 419.891 225 400 225C380.109 225 361.032 217.098 346.967 203.033C332.902 188.968 325 169.891 325 150C325 130.109 332.902 111.032 346.967 96.967C361.032 82.9018 380.109 75 400 75C419.891 75 438.968 82.9018 453.033 96.967C467.098 111.032 475 130.109 475 150Z" fill="#F5F5F5"/>
</svg>
